<?xml version="1.0" encoding="UTF-8" standalone="no"?>
<!-- Created with Inkscape (http://www.inkscape.org/) -->

<svg
   version="1.1"
   id="svg2"
   width="290.09332"
   height="77.106667"
   viewBox="0 0 290.09332 77.106667"
   sodipodi:docname="logo.svg"
   inkscape:version="1.2.2 (b0a84865, 2022-12-01)"
   xmlns:inkscape="http://www.inkscape.org/namespaces/inkscape"
   xmlns:sodipodi="http://sodipodi.sourceforge.net/DTD/sodipodi-0.dtd"
   xmlns="http://www.w3.org/2000/svg"
   xmlns:svg="http://www.w3.org/2000/svg">
  <defs
     id="defs6" />
  <sodipodi:namedview
     id="namedview4"
     pagecolor="#ffffff"
     bordercolor="#000000"
     borderopacity="0.25"
     inkscape:showpageshadow="2"
     inkscape:pageopacity="0.0"
     inkscape:pagecheckerboard="0"
     inkscape:deskcolor="#d1d1d1"
     showgrid="false"
     inkscape:zoom="4.3951373"
     inkscape:cx="148.00448"
     inkscape:cy="41.4094"
     inkscape:window-width="1920"
     inkscape:window-height="898"
     inkscape:window-x="0"
     inkscape:window-y="25"
     inkscape:window-maximized="0"
     inkscape:current-layer="g10">
    <inkscape:page
       x="0"
       y="0"
       id="page8"
       width="290.09332"
       height="77.106667" />
  </sodipodi:namedview>
  <g
     id="g10"
     inkscape:groupmode="layer"
     inkscape:label="Page 1"
     transform="matrix(1.3333333,0,0,-1.3333333,0,77.106667)">
    <g
       id="g12"
       transform="scale(0.1)">
      <path
         d="m 738.148,282.449 c 19.383,-3.406 35.364,-14.285 47.598,-32.644 13.262,18.359 20.402,45.222 20.402,79.902 0,69.023 -29.238,107.781 -74.457,107.781 -45.222,0 -74.464,-38.758 -74.464,-107.781 0,-69.023 29.242,-107.773 74.464,-107.773 14.618,0 27.879,4.082 38.758,12.226 -10.543,18.028 -18.359,24.141 -32.301,26.192 z m 99.286,-95.886 c -21.422,0 -44.543,7.832 -57.461,30.937 -13.606,-9.18 -29.922,-13.926 -48.282,-13.926 -61.543,0 -96.906,53.711 -96.906,126.133 0,72.422 35.363,126.141 96.906,126.141 61.536,0 96.899,-53.719 96.899,-126.141 0,-41.484 -11.559,-76.836 -33.32,-99.277 10.543,-18.36 20.742,-23.457 42.164,-23.457 v -20.41"
         style="fill:#1c4e9d;fill-opacity:1;fill-rule:nonzero;stroke:none"
         id="path14" />
      <path
         d="M 979.203,383.77 V 206.973 h -20.398 v 27.871 c -19.039,-19.715 -34.68,-31.27 -60.52,-31.27 -36.722,0 -52.363,21.074 -52.363,59.492 V 383.77 h 20.402 V 265.105 c 0,-29.238 8.844,-45.222 36.039,-45.222 21.762,0 34.004,13.262 56.442,33.672 V 383.77 h 20.398"
         style="fill:#1c4e9d;fill-opacity:1;fill-rule:nonzero;stroke:none"
         id="path16" />
      <path
         d="m 1118.6,311.016 c -4.07,36.367 -20.05,59.492 -50.99,59.832 -36.05,0.343 -51.34,-36.375 -51.69,-59.832 z m -102.68,-16.328 c 0,-40.118 16.66,-74.805 56.79,-74.805 22.77,0 33.99,7.82 51.68,35.703 l 16.66,-8.836 c -19.04,-31.281 -36.38,-43.176 -70.04,-43.176 -46.24,0 -75.487,29.571 -75.487,91.797 0,54.746 27.877,91.797 72.767,91.797 47.94,0 70.71,-37.734 70.71,-92.48 h -123.08"
         style="fill:#1c4e9d;fill-opacity:1;fill-rule:nonzero;stroke:none"
         id="path18" />
      <path
         d="m 1278.4,311.016 c -4.07,36.367 -20.06,59.492 -51,59.832 -36.03,0.343 -51.34,-36.375 -51.68,-59.832 z m -102.68,-16.328 c 0,-40.118 16.66,-74.805 56.78,-74.805 22.78,0 34,7.82 51.68,35.703 l 16.66,-8.836 c -19.03,-31.281 -36.38,-43.176 -70.04,-43.176 -46.23,0 -75.48,29.571 -75.48,91.797 0,54.746 27.88,91.797 72.77,91.797 47.94,0 70.72,-37.734 70.72,-92.48 h -123.09"
         style="fill:#1c4e9d;fill-opacity:1;fill-rule:nonzero;stroke:none"
         id="path20" />
      <path
         d="M 1317.17,206.973 V 383.77 h 20.39 v -27.879 c 19.04,19.714 34.69,31.277 60.53,31.277 36.72,0 52.36,-21.074 52.36,-59.492 V 206.973 h -20.41 v 118.652 c 0,29.238 -8.83,45.223 -36.04,45.223 -21.75,0 -34,-13.25 -56.44,-33.66 V 206.973 h -20.39"
         style="fill:#1c4e9d;fill-opacity:1;fill-rule:nonzero;stroke:none"
         id="path22" />
      <path
         d="m 1555.84,206.973 v 245.476 h 39.44 l 67.67,-208.086 h 0.67 l 68,208.086 h 39.44 V 206.973 h -22.43 v 227.113 h -0.68 l -73.79,-227.113 h -21.42 l -73.77,227.113 h -0.69 V 206.973 h -22.44"
         style="fill:#1c4e9d;fill-opacity:1;fill-rule:nonzero;stroke:none"
         id="path24" />
      <path
         d="m 1898.91,306.934 c -80.92,-17.684 -91.81,-34.344 -91.81,-56.778 0,-19.394 13.26,-30.273 31.62,-30.273 19.04,0 42.5,11.23 60.19,29.238 z m 3.4,-99.961 -2.72,21.418 c -21.09,-16.664 -37.07,-24.817 -64.27,-24.817 -27.54,0 -48.62,16.992 -48.62,46.231 0,48.281 39.44,57.129 113.22,73.437 v 12.246 c 0,23.457 -10.19,35.36 -40.46,35.36 -21.08,0 -38.42,-11.563 -51.33,-31.961 l -13.61,8.164 c 15.3,28.554 37.06,40.117 65.62,40.117 40.12,0 59.16,-16.32 59.16,-55.418 v -92.484 c 0,-8.836 0.68,-20.399 2.72,-32.293 h -19.71"
         style="fill:#1c4e9d;fill-opacity:1;fill-rule:nonzero;stroke:none"
         id="path26" />
      <path
         d="M 1940.38,206.973 V 383.77 h 20.4 v -33.653 h 0.69 c 9.51,21.758 28.55,37.051 50.99,37.051 h 9.18 v -19.719 h -9.18 c -22.44,0 -51.68,-26.511 -51.68,-60.515 v -99.961 h -20.4"
         style="fill:#1c4e9d;fill-opacity:1;fill-rule:nonzero;stroke:none"
         id="path28" />
      <path
         d="m 2103.93,239.949 h 0.67 l 49.3,143.821 h 21.75 L 2109.7,194.395 c -11.9,-34.688 -24.47,-49.981 -56.44,-49.981 -8.84,0 -14.28,0.676 -19.04,2.031 v 16.66 c 6.12,-0.683 12.58,-2.382 20.4,-2.382 14.28,0 29.92,12.578 39.77,48.965 l -61.53,174.082 h 22.44 l 48.63,-143.821"
         style="fill:#1c4e9d;fill-opacity:1;fill-rule:nonzero;stroke:none"
         id="path30" />
      <path
         d="M 663.246,132.676 V 59.375 c 0,-10.0195 4.356,-15.2539 14.082,-15.2539 9.723,0 14.227,5.2344 14.227,15.2539 v 73.301 h 20.027 V 59.2188 c 0,-23.0665 -13.641,-32.793 -34.254,-32.793 -20.609,0 -34.109,9.7265 -34.109,32.793 v 73.4572 h 20.027"
         style="fill:#1c4e9d;fill-opacity:1;fill-rule:nonzero;stroke:none"
         id="path32" />
      <path
         d="m 723.195,27.8711 v 78.9649 h 17.707 v -9.004 c 6.676,5.801 12.922,10.449 20.465,10.449 11.184,0 16.988,-5.664 16.988,-20.3122 V 27.8711 h -18.292 v 58.0664 c 0,5.2148 -1.743,8.7109 -6.672,8.7109 -3.778,0 -7.985,-3.6328 -11.907,-7.1211 V 27.8711 h -18.289"
         style="fill:#1c4e9d;fill-opacity:1;fill-rule:nonzero;stroke:none"
         id="path34" />
      <path
         d="M 807.672,106.836 V 27.8711 h -18.285 v 78.9649 z m -18.285,13.641 v 16.554 h 18.285 v -16.554 h -18.285"
         style="fill:#1c4e9d;fill-opacity:1;fill-rule:nonzero;stroke:none"
         id="path36" />
      <path
         d="m 846.43,56.0352 h 0.289 l 12.047,50.8008 h 18.289 L 855.57,27.8711 h -17.996 l -21.48,78.9649 h 18.285 L 846.43,56.0352"
         style="fill:#1c4e9d;fill-opacity:1;fill-rule:nonzero;stroke:none"
         id="path38" />
      <path
         d="m 918.57,77.8047 v 4.3516 c 0,6.9648 -3.34,11.3203 -10.742,11.3203 -7.402,0 -10.742,-4.3555 -10.742,-11.3203 V 77.8047 Z M 897.086,63 V 52.5391 c 0,-7.8321 4.644,-11.3086 10.742,-11.3086 7.692,0 10.742,4.9218 10.742,11.0273 h 18.285 c -0.867,-16.2617 -10.593,-25.832 -29.027,-25.832 -17.418,0 -29.035,10.7305 -29.035,28.0078 v 25.8398 c 0,17.2657 11.617,28.0076 29.035,28.0076 16.981,0 29.027,-10.7419 29.027,-26.8552 V 63 h -39.769"
         style="fill:#1c4e9d;fill-opacity:1;fill-rule:nonzero;stroke:none"
         id="path40" />
      <path
         d="m 947.016,27.8711 v 78.9649 h 17.855 V 96.3867 h 0.289 c 4.211,7.8323 9.727,11.8943 18.867,11.8943 V 88.5469 c -3.047,0.8672 -6.527,2.0273 -9.718,2.0273 -5.954,0 -9,-4.5 -9,-8.7109 V 27.8711 h -18.293"
         style="fill:#1c4e9d;fill-opacity:1;fill-rule:nonzero;stroke:none"
         id="path42" />
      <path
         d="m 1028.74,82.7344 c -2.47,7.2656 -7.11,10.7422 -12.63,10.7422 -4.21,0 -7.4,-3.0469 -7.4,-7.1094 0,-12.1875 35.7,-12.4805 35.7,-35.9961 0,-15.6836 -11.03,-23.9453 -26.27,-23.9453 -11.03,0 -20.902,2.7539 -29.757,22.5 l 16.407,4.4922 c 1.59,-7.4024 6.09,-12.1875 13.35,-12.1875 5.52,0 8.85,2.6093 8.85,6.9609 0,15.0899 -35.701,11.4649 -35.701,38.0391 0,14.9415 12.051,22.0505 24.971,22.0505 13.64,0 23.07,-7.832 27.57,-19.7341 l -15.09,-5.8125"
         style="fill:#1c4e9d;fill-opacity:1;fill-rule:nonzero;stroke:none"
         id="path44" />
      <path
         d="M 1070.25,106.836 V 27.8711 h -18.29 v 78.9649 z m -18.29,13.641 v 16.554 h 18.29 v -16.554 h -18.29"
         style="fill:#1c4e9d;fill-opacity:1;fill-rule:nonzero;stroke:none"
         id="path46" />
      <path
         d="m 1079.25,88.5469 v 14.8011 h 7.25 v 21.476 h 18.3 v -21.476 h 11.75 V 88.5469 H 1104.8 V 48.1914 c 0,-3.9141 3.34,-5.8086 8.27,-5.8086 1.31,0 2.47,0 3.63,0.1563 V 27.1484 c -3.49,-0.5859 -6.97,-0.7226 -10.45,-0.7226 -11.91,0 -19.75,4.3555 -19.75,15.664 v 46.4571 h -7.25"
         style="fill:#1c4e9d;fill-opacity:1;fill-rule:nonzero;stroke:none"
         id="path48" />
      <path
         d="m 1126.27,16.2617 c 1.75,-0.2851 3.5,-0.2851 5.37,-0.2851 7.99,0 13.21,6.9531 13.21,10.4492 0,4.6367 -1.45,10.0078 -3.33,16.6875 l -18.3,63.7227 h 18.59 l 12.33,-52.2579 h 0.29 l 11.47,52.2579 h 18.58 L 1163.44,28.1641 C 1157.77,6.82422 1150.37,0 1132.08,0 c -1.74,0 -3.77,0.144531 -5.81,0.292969 V 16.2617"
         style="fill:#1c4e9d;fill-opacity:1;fill-rule:nonzero;stroke:none"
         id="path50" />
      <path
         d="m 1238.91,51.6797 c 0,-6.1055 4.35,-9.2969 10.74,-9.2969 6.39,0 10.74,3.1914 10.74,9.2969 v 31.3476 c 0,6.0938 -4.35,9.2969 -10.74,9.2969 -6.39,0 -10.74,-3.2031 -10.74,-9.2969 z m -18.28,26.6992 c 0,20.8984 10.74,29.9021 29.02,29.9021 18.3,0 29.03,-9.0037 29.03,-29.9021 V 56.3281 c 0,-20.9062 -10.73,-29.9023 -29.03,-29.9023 -18.28,0 -29.02,8.9961 -29.02,29.9023 v 22.0508"
         style="fill:#1c4e9d;fill-opacity:1;fill-rule:nonzero;stroke:none"
         id="path52" />
      <path
         d="M 1322.23,118.152 H 1317 c -4.34,0 -6.24,-2.761 -6.24,-6.668 v -8.136 h 10.89 V 88.5469 h -10.89 V 27.8711 h -18.28 v 60.6758 h -8.28 v 14.8011 h 8.28 v 7.55 c 0,18.282 7.69,23.223 21.04,23.223 2.61,0 5.66,-0.43 8.71,-0.867 v -15.102"
         style="fill:#1c4e9d;fill-opacity:1;fill-rule:nonzero;stroke:none"
         id="path54" />
      <path
         d="M 1365.49,27.8711 V 132.676 h 20.03 V 45.5742 h 32.21 V 27.8711 h -52.24"
         style="fill:#1c4e9d;fill-opacity:1;fill-rule:nonzero;stroke:none"
         id="path56" />
      <path
         d="m 1442.85,51.6797 c 0,-6.1055 4.36,-9.2969 10.74,-9.2969 6.39,0 10.75,3.1914 10.75,9.2969 v 31.3476 c 0,6.0938 -4.36,9.2969 -10.75,9.2969 -6.38,0 -10.74,-3.2031 -10.74,-9.2969 z m -18.29,26.6992 c 0,20.8984 10.74,29.9021 29.03,29.9021 18.29,0 29.03,-9.0037 29.03,-29.9021 V 56.3281 c 0,-20.9062 -10.74,-29.9023 -29.03,-29.9023 -18.29,0 -29.03,8.9961 -29.03,29.9023 v 22.0508"
         style="fill:#1c4e9d;fill-opacity:1;fill-rule:nonzero;stroke:none"
         id="path58" />
      <path
         d="m 1494.24,27.8711 v 78.9649 h 17.7 v -9.004 c 6.67,5.801 12.92,10.449 20.46,10.449 11.18,0 16.99,-5.664 16.99,-20.3122 V 27.8711 h -18.3 v 58.0664 c 0,5.2148 -1.73,8.7109 -6.67,8.7109 -3.78,0 -7.97,-3.6328 -11.9,-7.1211 V 27.8711 h -18.28"
         style="fill:#1c4e9d;fill-opacity:1;fill-rule:nonzero;stroke:none"
         id="path60" />
      <path
         d="m 1597.87,88.9844 c -3.63,3.9062 -6.97,5.664 -11.03,5.664 -4.94,0 -9,-3.2031 -9,-18.8789 V 58.9258 c 0,-15.6641 4.06,-18.8672 9,-18.8672 4.06,0 7.4,1.75 11.03,5.6641 z m 1.45,-61.1133 v 9.5781 h -0.29 c -3.19,-4.9297 -11.31,-11.0234 -19.45,-11.0234 -14.23,0 -20.03,11.0234 -20.03,31.3476 v 19.1602 c 0,20.3125 5.8,31.3474 20.03,31.3474 4.93,0 9.58,-2.324 18.29,-8.7107 v 33.1057 h 18.29 V 27.8711 h -16.84"
         style="fill:#1c4e9d;fill-opacity:1;fill-rule:nonzero;stroke:none"
         id="path62" />
      <path
         d="m 1643.16,51.6797 c 0,-6.1055 4.36,-9.2969 10.75,-9.2969 6.38,0 10.73,3.1914 10.73,9.2969 v 31.3476 c 0,6.0938 -4.35,9.2969 -10.73,9.2969 -6.39,0 -10.75,-3.2031 -10.75,-9.2969 z m -18.3,26.6992 c 0,20.8984 10.75,29.9021 29.05,29.9021 18.28,0 29.02,-9.0037 29.02,-29.9021 V 56.3281 c 0,-20.9062 -10.74,-29.9023 -29.02,-29.9023 -18.3,0 -29.05,8.9961 -29.05,29.9023 v 22.0508"
         style="fill:#1c4e9d;fill-opacity:1;fill-rule:nonzero;stroke:none"
         id="path64" />
      <path
         d="m 1694.54,27.8711 v 78.9649 h 17.71 v -9.004 c 6.68,5.801 12.93,10.449 20.47,10.449 11.17,0 16.98,-5.664 16.98,-20.3122 V 27.8711 h -18.29 v 58.0664 c 0,5.2148 -1.74,8.7109 -6.68,8.7109 -3.77,0 -7.98,-3.6328 -11.9,-7.1211 V 27.8711 h -18.29"
         style="fill:#1c4e9d;fill-opacity:1;fill-rule:nonzero;stroke:none"
         id="path66" />
      <path
         d="m 260.84,215.469 c -51.055,0 -92.438,51.015 -92.438,113.957 0,62.933 41.383,113.953 92.438,113.953 51.066,0 92.457,-51.02 92.457,-113.953 0,-62.942 -41.391,-113.957 -92.457,-113.957 z m -1.043,236.59 c -68.844,0 -124.649,-55.157 -124.649,-123.192 0,-68.027 55.805,-123.203 124.649,-123.203 68.851,0 124.66,55.176 124.66,123.203 0,68.035 -55.809,123.192 -124.66,123.192"
         style="fill:#1c4e9d;fill-opacity:1;fill-rule:nonzero;stroke:none"
         id="path68" />
      <path
         d="m 0,443.199 c 0,0 90.207,-63.746 49.1367,-140.933 0,0 60.7073,82.968 81.0543,-33.758 0,0 -17.437,26.453 -51.109,19.84 C 49.6523,282.566 46.0078,259.785 46.0078,259.785 L 0,443.199"
         style="fill:#1c4e9d;fill-opacity:1;fill-rule:nonzero;stroke:none"
         id="path70" />
      <path
         d="m 516.262,443.199 c 0,0 -90.207,-63.746 -49.141,-140.933 0,0 -60.699,82.968 -81.051,-33.758 0,0 17.438,26.453 51.11,19.84 29.422,-5.782 33.074,-28.563 33.074,-28.563 l 46.008,183.414"
         style="fill:#1c4e9d;fill-opacity:1;fill-rule:nonzero;stroke:none"
         id="path72" />
      <path
         d="m 143.57,199.102 c 13.219,4.668 25.66,8.73 41.856,14.902 -6.309,3.601 -14.649,10.586 -20.66,15.715 -15.934,-5.715 -30.664,-11.426 -39.879,-14.574 -9.328,-3.18 -39.8362,-10.262 -50.9222,19.679 -8.1132,21.953 7.4961,35.938 22.5586,35.938 5.6366,0 11.3786,-2.149 11.3516,-2.891 -7.742,0 -13.9922,-6.25 -13.9922,-13.965 0,-7.695 6.2502,-13.945 13.9532,-13.945 7.703,0 13.957,6.25 13.957,13.945 0,6.043 -3.086,10.672 -7.676,14.18 -6.203,4.297 -14.8475,6.844 -23.0467,6.844 -18.3555,0 -34.3476,-16.141 -36.9492,-34.84 -2.957,-21.203 20.293,-65.402 89.4489,-40.988"
         style="fill:#1c4e9d;fill-opacity:1;fill-rule:nonzero;stroke:none"
         id="path74" />
      <path
         d="m 71.5391,163.633 c -2.7774,9.707 7.8203,17.644 23.539,17.644 H 427.453 c 15.711,0 26.317,-7.937 23.543,-17.644 -2.781,-9.707 -17.879,-16.699 -33.555,-15.528 l -128.035,9.493 c -15.683,1.172 -41.34,1.172 -57.023,-0.008 l -127.301,-9.485 c -15.6718,-1.171 -30.7812,5.821 -33.5429,15.528"
         style="fill:#1c4e9d;fill-opacity:1;fill-rule:nonzero;stroke:none"
         id="path76" />
      <path
         d="m 279.992,464.121 c -13.34,19.359 -5.441,31.465 3.606,31.406 14.363,-0.089 19.617,-8.183 19.531,-21.164 7.699,4.481 14.855,16.227 14.93,27.254 0.066,11.008 -8.532,21.289 -19.539,21.356 -13.461,0.09 -20.375,-4.129 -26.563,-11.211 1.035,2.207 2.129,4.359 3.215,6.437 2.328,4.543 5.047,10.067 5.019,14.981 -0.035,5.898 -2.828,12.371 -6.8,19.425 -3.782,6.864 -9.157,17.063 -12.75,25.696 -3.489,-8.684 -8.731,-18.938 -12.426,-25.844 -3.902,-7.105 -6.61,-13.613 -6.578,-19.519 0.039,-4.907 2.82,-10.395 5.203,-14.911 1.144,-2.105 2.273,-4.289 3.355,-6.535 -6.242,7.254 -13.156,11.571 -26.785,11.481 -11.012,-0.067 -19.605,-10.348 -19.531,-21.356 0.062,-11.027 7.219,-22.773 14.914,-27.254 -0.082,12.981 5.176,21.075 19.531,21.164 9.047,0.059 16.864,-10.922 2.77,-31.406 15.402,3.762 24.054,3.192 38.898,0"
         style="fill:#1c4e9d;fill-opacity:1;fill-rule:nonzero;stroke:none"
         id="path78" />
      <path
         d="m 462.59,238.281 c -2.61,18.692 -18.586,34.844 -36.945,34.844 -8.204,0 -16.852,-2.539 -23.047,-6.836 -4.59,-3.516 -7.676,-8.137 -7.676,-14.18 0,-7.707 6.246,-13.957 13.957,-13.957 7.703,0 13.945,6.25 13.945,13.957 0,7.715 -6.242,13.954 -13.992,13.954 -0.027,0.753 5.731,2.902 11.363,2.902 15.059,0 30.664,-13.985 22.539,-35.938 -11.074,-29.953 -41.582,-22.871 -50.914,-19.687 -9.211,3.144 -50.8,19.004 -66.738,24.726 -0.266,-0.222 -0.59,-0.5 -0.863,-0.73 -38.031,13.824 -44.223,16.031 -62.364,19.793 -58.445,12.129 -62.503,-26.66 -62.503,-26.66 0,-1.348 4.957,17.148 43.668,13.183 15.878,-1.609 25.296,-5.957 61.839,-21.035 -0.136,-0.078 -0.293,-0.195 -0.425,-0.273 16.207,-6.172 55.5,-20.391 68.714,-25.047 69.149,-24.406 92.387,19.793 89.442,40.984"
         style="fill:#1c4e9d;fill-opacity:1;fill-rule:nonzero;stroke:none"
         id="path80" />
    </g>
  </g>
</svg>
